<svg xmlns="http://www.w3.org/2000/svg" xmlns:xlink="http://www.w3.org/1999/xlink" width="500" zoomAndPan="magnify" viewBox="0 0 375 187.499995" height="250" preserveAspectRatio="xMidYMid meet" version="1.0"><defs><g/><clipPath id="91d40d8fec"><path d="M 264.738281 58.410156 L 297.171875 58.410156 L 297.171875 113.632812 L 264.738281 113.632812 Z M 264.738281 58.410156 " clip-rule="nonzero"/></clipPath><clipPath id="2df9968aa1"><path d="M 273.714844 58.410156 L 288.1875 58.410156 C 293.144531 58.410156 297.164062 62.429688 297.164062 67.386719 L 297.164062 104.507812 C 297.164062 109.464844 293.144531 113.484375 288.1875 113.484375 L 273.714844 113.484375 C 268.757812 113.484375 264.738281 109.464844 264.738281 104.507812 L 264.738281 67.386719 C 264.738281 62.429688 268.757812 58.410156 273.714844 58.410156 " clip-rule="nonzero"/></clipPath><clipPath id="f3b9b40a88"><path d="M 302.171875 37.179688 L 334.605469 37.179688 L 334.605469 112.5625 L 302.171875 112.5625 Z M 302.171875 37.179688 " clip-rule="nonzero"/></clipPath><clipPath id="3d43e4dd98"><path d="M 311.148438 37.179688 L 325.621094 37.179688 C 330.578125 37.179688 334.597656 41.199219 334.597656 46.15625 L 334.597656 103.480469 C 334.597656 108.4375 330.578125 112.457031 325.621094 112.457031 L 311.148438 112.457031 C 306.191406 112.457031 302.171875 108.4375 302.171875 103.480469 L 302.171875 46.15625 C 302.171875 41.199219 306.191406 37.179688 311.148438 37.179688 " clip-rule="nonzero"/></clipPath><clipPath id="e4bb6ce44b"><path d="M 339.980469 18.699219 L 372.414062 18.699219 L 372.414062 112.492188 L 339.980469 112.492188 Z M 339.980469 18.699219 " clip-rule="nonzero"/></clipPath><clipPath id="c07dc77c6c"><path d="M 348.957031 18.699219 L 363.429688 18.699219 C 368.386719 18.699219 372.40625 22.71875 372.40625 27.675781 L 372.40625 103.480469 C 372.40625 108.4375 368.386719 112.457031 363.429688 112.457031 L 348.957031 112.457031 C 344 112.457031 339.980469 108.4375 339.980469 103.480469 L 339.980469 27.675781 C 339.980469 22.71875 344 18.699219 348.957031 18.699219 " clip-rule="nonzero"/></clipPath></defs><g clip-path="url(#91d40d8fec)"><g clip-path="url(#2df9968aa1)"><path fill="#000000" d="M 264.738281 58.410156 L 297.171875 58.410156 L 297.171875 113.632812 L 264.738281 113.632812 Z M 264.738281 58.410156 " fill-opacity="1" fill-rule="nonzero"/></g></g><g fill="#000000" fill-opacity="1"><g transform="translate(-4.290801, 111.504553)"><g><path d="M 60.914062 0 L 60.914062 -20.898438 L 45.074219 -20.898438 L 45.074219 -74.847656 L 60.914062 -74.847656 L 60.914062 -96.15625 L 5.875 -96.15625 L 5.875 -74.847656 L 21.714844 -74.847656 L 21.714844 -20.898438 L 5.875 -20.898438 L 5.875 0 Z M 60.914062 0 "/></g></g></g><g fill="#000000" fill-opacity="1"><g transform="translate(61.809321, 111.504553)"><g><path d="M 51.21875 -95.609375 L 6.964844 -95.609375 L 6.964844 0 L 50.945312 0 C 71.023438 0 81.539062 -15.433594 81.539062 -30.867188 C 81.539062 -38.925781 77.441406 -47.257812 67.335938 -52.449219 C 73.617188 -56.820312 76.488281 -63.511719 76.488281 -70.066406 C 76.488281 -82.632812 66.378906 -95.609375 51.21875 -95.609375 Z M 47.667969 -61.050781 L 30.046875 -61.050781 L 30.046875 -74.4375 L 47.941406 -74.4375 C 51.628906 -74.4375 53.675781 -71.160156 53.675781 -67.882812 C 53.675781 -64.46875 51.765625 -61.050781 47.667969 -61.050781 Z M 50.945312 -22.125 L 30.046875 -22.125 L 30.046875 -39.472656 L 50.945312 -39.472656 C 55.863281 -39.472656 58.320312 -35.101562 58.320312 -30.730469 C 58.320312 -26.359375 55.863281 -22.125 50.945312 -22.125 Z M 50.945312 -22.125 "/></g></g></g><g fill="#000000" fill-opacity="1"><g transform="translate(148.668155, 111.504553)"><g><path d="M 50.535156 -58.59375 L 25.40625 -95.609375 L 6.828125 -95.609375 L 6.828125 0 L 30.183594 0 L 30.183594 -47.53125 L 43.980469 -26.90625 L 56.957031 -26.90625 L 70.75 -47.257812 L 70.75 0 L 93.96875 0 L 93.96875 -95.609375 L 75.667969 -95.609375 Z M 50.535156 -58.59375 "/></g></g></g><g clip-path="url(#f3b9b40a88)"><g clip-path="url(#3d43e4dd98)"><path fill="#000000" d="M 302.171875 37.179688 L 334.605469 37.179688 L 334.605469 112.5625 L 302.171875 112.5625 Z M 302.171875 37.179688 " fill-opacity="1" fill-rule="nonzero"/></g></g><g clip-path="url(#e4bb6ce44b)"><g clip-path="url(#c07dc77c6c)"><path fill="#000000" d="M 339.980469 18.699219 L 372.414062 18.699219 L 372.414062 112.492188 L 339.980469 112.492188 Z M 339.980469 18.699219 " fill-opacity="1" fill-rule="nonzero"/></g></g><g fill="#000000" fill-opacity="1"><g transform="translate(-1.054416, 169.057373)"><g><path d="M 26.667969 -31.742188 L 32.785156 -31.988281 C 31.683594 -39.816406 24.832031 -43.242188 18.226562 -43.242188 C 13.273438 -43.242188 8.136719 -41.285156 5.261719 -37.554688 C 3.667969 -35.476562 2.875 -33.027344 2.875 -30.460938 C 2.875 -30.152344 2.9375 -29.785156 2.9375 -29.417969 L 2.9375 -29.480469 C 3.609375 -20.550781 11.4375 -19.082031 18.105469 -18.410156 C 22.386719 -17.980469 26.789062 -17.433594 27.523438 -14.191406 C 27.644531 -13.640625 27.707031 -13.148438 27.707031 -12.722656 C 27.707031 -8.316406 22.691406 -5.75 18.105469 -5.75 C 14.128906 -5.75 9.296875 -7.828125 8.867188 -11.804688 L 8.867188 -11.558594 L 8.808594 -12.476562 L 2.570312 -12.355469 L 2.628906 -11.191406 C 3.425781 -3.546875 11.4375 0.367188 18.042969 0.367188 C 25.75 0.367188 33.945312 -4.402344 33.945312 -12.660156 C 33.945312 -13.515625 33.824219 -14.558594 33.640625 -15.472656 C 31.988281 -22.324219 24.710938 -23.855469 18.839844 -24.585938 C 14.066406 -25.015625 9.113281 -25.628906 9.113281 -30.582031 C 9.113281 -31.804688 9.417969 -33.027344 10.152344 -33.945312 C 11.925781 -36.207031 15.167969 -37.1875 18.105469 -37.1875 C 21.773438 -37.1875 25.8125 -35.535156 26.667969 -31.742188 Z M 26.667969 -31.742188 "/></g></g></g><g fill="#000000" fill-opacity="1"><g transform="translate(35.336555, 169.057373)"><g><path d="M 11.375 0 L 11.375 -42.816406 L 5.261719 -42.816406 L 5.261719 0 Z M 27.460938 -42.816406 L 12.539062 -22.9375 L 12.539062 -19.816406 L 28.871094 0 L 36.820312 0 L 18.777344 -21.53125 L 35.109375 -42.816406 Z M 27.460938 -42.816406 "/></g></g></g><g fill="#000000" fill-opacity="1"><g transform="translate(71.788696, 169.057373)"><g><path d="M 19.390625 -37.492188 L 27.339844 -37.492188 L 27.339844 -43.179688 L 5.261719 -43.179688 L 5.261719 -37.492188 L 13.210938 -37.492188 L 13.210938 -5.75 L 5.261719 -5.75 L 5.261719 0 L 27.339844 0 L 27.339844 -5.75 L 19.390625 -5.75 Z M 19.390625 -37.492188 "/></g></g></g><g fill="#000000" fill-opacity="1"><g transform="translate(104.326514, 169.057373)"><g><path d="M 31.558594 -6.175781 L 11.4375 -6.175781 L 11.4375 -42.816406 L 5.261719 -42.816406 L 5.261719 0 L 31.558594 0 Z M 31.558594 -6.175781 "/></g></g></g><g fill="#000000" fill-opacity="1"><g transform="translate(136.191544, 169.057373)"><g><path d="M 31.558594 -6.175781 L 11.4375 -6.175781 L 11.4375 -42.816406 L 5.261719 -42.816406 L 5.261719 0 L 31.558594 0 Z M 31.558594 -6.175781 "/></g></g></g><g fill="#000000" fill-opacity="1"><g transform="translate(168.056574, 169.057373)"><g><path d="M 23.058594 -43.242188 L 5.261719 -43.242188 L 5.261719 0 L 24.585938 0 C 32.785156 0 37.003906 -6.484375 37.003906 -12.90625 C 37.003906 -16.941406 35.230469 -21.46875 30.335938 -23.546875 C 33.273438 -25.75 34.617188 -28.871094 34.617188 -31.988281 C 34.617188 -37.675781 30.152344 -43.242188 23.058594 -43.242188 Z M 22.9375 -25.75 L 11.375 -25.75 L 11.375 -37.371094 L 23.058594 -37.371094 C 26.546875 -37.371094 28.195312 -34.617188 28.195312 -31.742188 C 28.195312 -28.808594 26.363281 -25.75 22.9375 -25.75 Z M 24.585938 -5.992188 L 11.375 -5.992188 L 11.375 -19.632812 L 24.585938 -19.632812 C 28.746094 -19.632812 30.828125 -16.207031 30.828125 -12.84375 C 30.828125 -9.480469 28.746094 -5.992188 24.585938 -5.992188 Z M 24.585938 -5.992188 "/></g></g></g><g fill="#000000" fill-opacity="1"><g transform="translate(207.322131, 169.057373)"><g><path d="M 2.140625 -21.40625 C 2.140625 -9.050781 11.988281 0.796875 24.34375 0.796875 C 36.699219 0.796875 46.605469 -9.050781 46.605469 -21.40625 C 46.605469 -33.761719 36.699219 -43.671875 24.34375 -43.671875 C 11.988281 -43.671875 2.140625 -33.761719 2.140625 -21.40625 Z M 8.5 -21.40625 C 8.5 -30.214844 15.535156 -37.308594 24.34375 -37.308594 C 33.152344 -37.308594 40.246094 -30.214844 40.246094 -21.40625 C 40.246094 -12.601562 33.152344 -5.566406 24.34375 -5.566406 C 15.535156 -5.566406 8.5 -12.601562 8.5 -21.40625 Z M 8.5 -21.40625 "/></g></g></g><g fill="#000000" fill-opacity="1"><g transform="translate(256.495823, 169.057373)"><g><path d="M 10.582031 -10.824219 L 27.953125 -10.824219 L 32.050781 0 L 38.65625 0 L 21.46875 -43.363281 L 16.941406 -43.363281 L -0.246094 0 L 6.421875 0 Z M 25.6875 -16.636719 L 12.84375 -16.636719 L 19.265625 -33.519531 Z M 25.6875 -16.636719 "/></g></g></g><g fill="#000000" fill-opacity="1"><g transform="translate(295.272091, 169.057373)"><g><path d="M 20.855469 -21.714844 L 13.640625 -21.714844 L 13.640625 -18.777344 L 29.234375 0 L 37.25 0 L 23.730469 -16.085938 C 31.070312 -17.371094 34.800781 -23.121094 34.800781 -29.175781 C 34.800781 -35.964844 30.152344 -43.363281 20.855469 -43.363281 L 5.261719 -43.363281 L 5.261719 0 L 11.375 0 L 11.375 -37.125 L 20.855469 -37.125 C 26.054688 -37.125 28.625 -32.84375 28.625 -29.175781 C 28.625 -25.445312 26.054688 -21.714844 20.855469 -21.714844 Z M 20.855469 -21.714844 "/></g></g></g><g fill="#000000" fill-opacity="1"><g transform="translate(331.724232, 169.057373)"><g><path d="M 20.613281 -43.179688 L 5.261719 -43.179688 L 5.261719 0 L 20.613281 0 C 34.617188 0 41.652344 -10.640625 41.652344 -21.347656 C 41.652344 -32.050781 34.617188 -43.179688 20.613281 -43.179688 Z M 20.613281 -6.175781 L 11.4375 -6.175781 L 11.4375 -37.003906 L 20.613281 -37.003906 C 30.519531 -37.003906 35.535156 -28.929688 35.535156 -21.347656 C 35.535156 -13.761719 30.519531 -6.175781 20.613281 -6.175781 Z M 20.613281 -6.175781 "/></g></g></g></svg>